<?xml version="1.0"?>
<svg width="185" height="185" xmlns="http://www.w3.org/2000/svg" xmlns:svg="http://www.w3.org/2000/svg">
 <defs>
  <linearGradient id="paint0_linear_13_13" x1="0" x2="1" y1="0.5" y2="0.5">
   <stop stop-color="#FFDB6E"/>
   <stop offset="1" stop-color="#FFBC5E"/>
  </linearGradient>
 </defs>
 <g class="layer">
  <title>Layer 1</title>
  <path d="m0,92.5c0,-51.09 41.41,-92.5 92.5,-92.5l42.5,0c27.61,0 50,22.39 50,50l0,42.5c0,51.09 -41.41,92.5 -92.5,92.5l0,0c-51.09,0 -92.5,-41.41 -92.5,-92.5l0,0z" fill="url(#paint0_linear_13_13)" id="svg_1" transform="matrix(1 0 0 1 0 0)"/>
  <path d="m137.11,88.36c0,0 0.05,0.12 0.14,0.35l0,0.28c0,0.19 0,0.38 0,0.56c0,0.19 -0.05,0.29 -0.14,0.29l-0.28,0c0,0.09 -0.05,0.18 -0.14,0.28c-0.19,0 -0.35,0.16 -0.5,0.49c-0.09,0.33 -0.23,0.75 -0.42,1.27c-0.46,0.75 -0.91,1.8 -1.33,3.16c-0.42,1.31 -0.99,2.84 -1.69,4.57c-1.36,3.47 -2.93,7.8 -4.71,13.01c-0.19,0.75 -0.42,1.4 -0.7,1.97c-0.24,0.56 -0.45,1.24 -0.64,2.04c-0.37,0.56 -0.68,1.21 -0.91,1.96c-0.23,0.71 -0.49,1.48 -0.77,2.32c-0.19,0.57 -0.47,1.22 -0.85,1.97c-0.33,0.71 -0.63,1.5 -0.91,2.39c-0.38,0.57 -0.7,1.22 -0.99,1.97c-0.28,0.7 -0.63,1.48 -1.05,2.32l-0.99,2.04c-0.18,0.47 -0.44,0.89 -0.77,1.27c-0.33,0.37 -0.58,0.72 -0.77,1.05c-0.19,0.19 -0.38,0.38 -0.56,0.56c-0.15,0.19 -0.31,0.38 -0.5,0.57l-0.28,0.56l-0.42,0c0,0.09 -0.05,0.19 -0.14,0.28l-0.28,0c-0.1,0 -0.14,0.19 -0.14,0.56l-0.28,0l-0.15,0l-0.28,0l-0.21,0l-0.28,0l-0.42,0l-0.14,0l-0.42,0c-0.19,0 -0.28,-0.09 -0.28,-0.28c0,-0.19 -0.05,-0.28 -0.14,-0.28c-0.19,0 -0.33,-0.05 -0.43,-0.14c-0.09,-0.09 -0.23,-0.14 -0.42,-0.14l-0.77,-1.41c0,-0.18 -0.02,-0.3 -0.07,-0.35c-0.05,-0.04 -0.17,-0.23 -0.35,-0.56c0,-0.19 -0.03,-0.38 -0.07,-0.56c-0.05,-0.19 -0.07,-0.38 -0.07,-0.57c-0.19,0 -0.28,-0.18 -0.28,-0.56l0,-0.28c-0.1,0 -0.15,-0.09 -0.15,-0.28l0,-0.28c0,-0.47 0,-0.75 0,-0.85c0,-0.04 -0.09,-0.16 -0.28,-0.35l0,-0.56l0,-0.28l0,-3.16l0,-1.76c0.19,-0.57 0.28,-1.17 0.28,-1.83c0,-0.7 0.05,-1.34 0.15,-1.9c0.18,-1.17 0.3,-2.27 0.35,-3.3c0.04,-1.08 0.16,-2.18 0.35,-3.31c0.37,-4.31 0.96,-8.65 1.76,-13.01c0.18,-2.2 0.42,-4.4 0.7,-6.61c0.28,-2.2 0.61,-4.4 0.98,-6.61c0.19,-2.2 0.43,-4.45 0.71,-6.75c0.32,-2.29 0.58,-4.54 0.77,-6.75c0.19,-2.29 0.35,-4.54 0.49,-6.75c0.14,-2.25 0.21,-4.61 0.21,-7.1c0,-2.2 -0.07,-4.31 -0.21,-6.33c-0.14,-2.01 -0.35,-3.75 -0.63,-5.2c-0.19,-0.84 -0.4,-1.62 -0.63,-2.32c-0.24,-0.75 -0.57,-1.4 -0.99,-1.97c-0.56,-0.84 -1.4,-1.71 -2.53,-2.6l-0.91,0c0,-0.19 -0.03,-0.28 -0.07,-0.28c-0.05,0 -0.07,-0.05 -0.07,-0.14l0,-0.14l-0.43,0l-0.84,0l-0.91,0l-0.85,0l-1.12,0c-0.1,0 -0.21,0.09 -0.35,0.28c-0.15,0.19 -0.31,0.28 -0.5,0.28c-0.28,0 -0.58,0.09 -0.91,0.28l-0.84,0c-0.1,0.28 -0.21,0.45 -0.36,0.49c-0.14,0.05 -0.3,0.17 -0.49,0.36c-0.37,0 -0.68,0.18 -0.91,0.56c-0.1,0 -0.21,0.05 -0.35,0.14c-0.14,0.09 -0.31,0.14 -0.5,0.14c-0.28,0.28 -0.54,0.54 -0.77,0.77c-0.23,0.19 -0.54,0.43 -0.91,0.71c-0.28,0.18 -0.57,0.44 -0.85,0.77c-0.23,0.33 -0.54,0.66 -0.91,0.98c-1.08,1.08 -2.16,2.18 -3.24,3.31c-1.03,1.12 -2.01,2.41 -2.95,3.87c-1.08,1.36 -2.06,2.83 -2.95,4.43c-0.85,1.54 -1.69,3.14 -2.53,4.78c-0.85,1.45 -1.71,3 -2.6,4.64c-0.85,1.59 -1.72,3.21 -2.61,4.85c-0.75,1.45 -1.52,2.98 -2.32,4.57c-0.75,1.55 -1.54,3 -2.39,4.36c-0.75,1.64 -1.5,3.14 -2.25,4.5c-0.7,1.31 -1.45,2.69 -2.25,4.15c-0.75,1.36 -1.52,2.67 -2.32,3.93c-0.75,1.22 -1.5,2.42 -2.25,3.59c-1.45,2.77 -2.81,5.16 -4.08,7.17c-0.37,0.47 -0.7,1.01 -0.98,1.62c-0.28,0.56 -0.61,1.08 -0.98,1.55c-0.19,0.56 -0.45,1.1 -0.78,1.61c-0.28,0.47 -0.61,1.08 -0.98,1.83c-1.17,1.92 -2.25,3.71 -3.24,5.35c-0.98,1.64 -1.96,3.11 -2.95,4.42c-0.84,1.65 -1.57,2.98 -2.18,4.01c-0.66,0.99 -1.22,1.88 -1.69,2.68c-0.37,0.46 -0.63,0.79 -0.77,0.98c-0.19,0.19 -0.37,0.42 -0.56,0.7l-0.28,0.28c-0.19,0.75 -0.38,0.75 -0.57,0l0,-0.84l0,-0.14c0,-0.09 0.03,-0.19 0.07,-0.28c0.05,-0.1 0.07,-0.24 0.07,-0.42c0.1,-0.1 0.38,-0.97 0.85,-2.6c0.37,-0.85 0.8,-2 1.26,-3.45c0.43,-1.45 0.96,-3.19 1.62,-5.2c0.66,-1.74 1.38,-3.66 2.18,-5.77c0.84,-2.11 1.76,-4.31 2.74,-6.61c0.19,-0.75 0.45,-1.4 0.78,-1.97c0.32,-0.61 0.58,-1.31 0.77,-2.11l0.91,-1.68c0.1,-0.47 0.21,-0.8 0.36,-0.99c0.14,-0.23 0.3,-0.58 0.49,-1.05c0.94,-2.58 2.22,-5.16 3.86,-7.74c0.66,-1.64 1.29,-3.14 1.9,-4.5c0.66,-1.36 1.39,-2.74 2.18,-4.15c0.75,-1.36 1.55,-2.74 2.39,-4.14c0.89,-1.46 1.76,-2.86 2.61,-4.22c0.84,-1.46 1.73,-2.82 2.67,-4.08c0.93,-1.31 1.92,-2.65 2.95,-4.01c0.94,-1.17 1.92,-2.37 2.95,-3.59c1.03,-1.26 2.07,-2.55 3.1,-3.86c1.08,-1.08 2.15,-2.21 3.23,-3.38c1.13,-1.22 2.2,-2.39 3.24,-3.51c1.07,-1.36 2.15,-2.56 3.23,-3.59c1.13,-1.08 2.27,-2.2 3.45,-3.37c1.07,-1.36 2.2,-2.54 3.37,-3.52c1.17,-0.98 2.44,-1.92 3.8,-2.81c0.09,0 0.21,-0.1 0.35,-0.28c0.14,-0.19 0.3,-0.28 0.49,-0.28c0.19,0 0.35,-0.05 0.49,-0.15c0.19,-0.09 0.38,-0.14 0.57,-0.14c0.18,-0.37 0.46,-0.56 0.84,-0.56c0.28,-0.19 0.66,-0.28 1.12,-0.28c0.29,-0.37 0.64,-0.59 1.06,-0.63l1.12,-0.28l0.15,0l0.28,0l0.42,0l1.33,0c0.66,0 1.36,0.21 2.11,0.63c0.8,0.37 1.57,0.84 2.32,1.41c0.66,0.84 1.34,1.89 2.04,3.16c0.28,0.56 0.59,1.19 0.92,1.9c0.33,0.65 0.61,1.26 0.84,1.83c0.19,0.75 0.37,1.45 0.56,2.11c0.19,0.6 0.33,1.35 0.43,2.25c0.18,0.75 0.35,1.43 0.49,2.03c0.14,0.57 0.26,1.22 0.35,1.97c0.19,1.46 0.35,2.93 0.49,4.43c0.14,1.46 0.21,2.86 0.21,4.22c0.09,1.45 0.14,2.84 0.14,4.15c0,1.27 0,2.58 0,3.94c-0.09,1.36 -0.14,2.65 -0.14,3.86c0,1.22 -0.09,2.51 -0.28,3.87c-0.09,2.58 -0.23,5.16 -0.42,7.74c-0.19,2.53 -0.38,5.04 -0.56,7.52c-0.19,2.3 -0.45,4.64 -0.78,7.03c-0.33,2.35 -0.61,4.62 -0.84,6.82c-0.28,1.92 -0.54,3.75 -0.78,5.49c-0.23,1.73 -0.44,3.44 -0.63,5.13c0.19,-0.94 0.52,-1.59 0.99,-1.97c0.65,-1.36 1.26,-2.58 1.83,-3.66c0.6,-1.12 1.26,-2.22 1.96,-3.3c1.08,-2.02 2.14,-3.89 3.17,-5.63c1.03,-1.78 1.99,-3.35 2.88,-4.71c0.84,-1.64 1.62,-2.95 2.32,-3.93c0.75,-1.04 1.41,-1.93 1.97,-2.68c0.28,-0.18 0.54,-0.37 0.77,-0.56c0.24,-0.23 0.45,-0.35 0.64,-0.35l0.35,0l0.14,0l0.28,0zm-22.08,34.31l-0.28,0l0.28,0zm-0.28,0l-0.14,0l0.14,0z" fill="black" fill-opacity="0.86" id="svg_2" transform="rotate(76.7329 92.67 85.055)"/>
  <line fill="none" fill-opacity="0.86" id="svg_4" x1="55.7" x2="74.7" y1="50.6" y2="109.6"/>
  <path d="m6.95,2.11c0.08,2.65 0.11,3.37 0.17,4.16c0.06,0.86 0.18,2.22 0.22,2.69c0.09,0.96 0.19,1.92 0.24,2.41c0.15,1.44 0.26,2.38 0.31,2.84c0.1,0.91 0.21,1.8 0.37,3.12c0.1,0.86 0.21,1.69 0.31,2.48c0.09,0.73 0.21,1.67 0.35,2.65c0.14,1.01 0.24,1.83 0.35,2.51c0.18,1.06 0.32,1.66 0.52,2.62c0.14,0.67 0.34,1.7 0.53,2.75c0.13,0.74 0.26,1.55 0.41,2.42c0.16,0.96 0.34,1.96 0.43,2.46c0.17,0.97 0.4,2.23 0.52,2.89c0.17,0.95 0.32,1.94 0.46,2.7c0.17,0.91 0.26,1.79 0.44,2.68c0.19,0.96 0.52,1.64 0.67,2.58c0.13,0.87 0.24,1.82 0.29,2.59c0.06,0.89 0.34,1.8 0.62,2.62c0.27,0.78 0.37,1.57 0.43,2.6c0.06,0.97 0.21,1.71 0.42,2.62c0.21,0.9 0.38,1.78 0.38,2.62c0,0.89 -0.66,2.48 0,2.48c0.95,0 -0.01,-1.68 0.02,-2.36c0.04,-1.13 0.19,-1.91 0.22,-2.97c0.03,-0.84 -0.06,-1.43 -0.21,-2.66c-0.06,-0.51 -0.23,-1.67 -0.32,-2.3c-0.09,-0.67 -0.19,-1.36 -0.3,-2.07c-0.21,-1.48 -0.32,-2.23 -0.42,-3.01c-0.11,-0.8 -0.22,-1.63 -0.32,-2.51c-0.11,-0.93 -0.22,-1.92 -0.33,-2.98c-0.24,-2.37 -0.35,-3.69 -0.47,-5.09c-0.12,-1.45 -0.24,-2.93 -0.35,-4.42c-0.11,-1.47 -0.21,-2.91 -0.3,-4.28c-0.16,-2.49 -0.22,-3.56 -0.26,-4.51c-0.04,-0.86 -0.07,-1.63 -0.08,-2.32c-0.02,-0.63 -0.02,-1.22 -0.03,-1.76c0,-1.04 0,-1.55 0,-2.07c0,-0.51 0,-1.03 0.01,-1.54c0.01,-0.5 0.02,-1 0.03,-1.49c0.04,-0.95 0.07,-1.4 0.1,-1.84c0.03,-0.43 0.07,-0.85 0.11,-1.26c0.04,-0.4 0.08,-0.79 0.11,-1.18c0.12,-1.47 0.14,-2.16 0.15,-3.11c0.01,-1.02 0.02,-1.78 -0.06,-2.71c-0.07,-0.83 -0.17,-1.77 -0.3,-2.62c-0.13,-0.86 -0.29,-1.81 -0.51,-2.59c-0.23,-0.82 -0.43,-1.77 -0.65,-2.63c-0.22,-0.86 -0.56,-2.12 -1,-1.97c-0.87,0.32 -0.45,1.78 -0.58,2.51c-0.15,0.83 -0.28,1.75 -0.4,2.72c-0.06,0.51 -0.17,1.55 -0.21,2.08c-0.09,1.08 -0.15,2.16 -0.19,3.23c-0.02,0.53 -0.03,1.55 -0.03,2.52c0,0.46 0.05,2.09 0.1,2.8c0.04,0.66 0.15,1.95 0.2,2.62c0.06,0.74 0.13,1.58 0.25,2.54c0.13,1.12 0.22,1.75 0.32,2.42c0.1,0.71 0.22,1.47 0.35,2.25c0.14,0.82 0.29,1.67 0.46,2.54c0.36,1.81 0.57,2.73 0.79,3.67c0.22,0.94 0.44,1.88 0.67,2.81c0.22,0.92 0.44,1.81 0.65,2.68c0.38,1.63 0.54,2.39 0.68,3.1c0.13,0.66 0.25,1.29 0.35,1.86c0.09,0.53 0.15,1.03 0.39,2.24c0.22,1.08 0.41,1.99 0.6,2.74c0.21,0.82 0.79,1.64 1.02,2.5c0.22,0.81 0.53,1.66 0.53,2.56l0.01,0.79" fill="none" fill-opacity="0.86" id="svg_6" opacity="2"/>
  <path d="m50.63,49.47c0.54,1.98 0.97,3.12 1.25,4.01c0.3,0.97 0.64,1.99 1.11,2.97c0.49,1.03 0.91,1.73 1.79,3.32c0.47,0.85 0.94,1.69 1.37,2.49c0.72,1.33 1.21,2.32 1.65,3.36c0.37,0.86 0.78,2.02 1.16,3c0.41,1.06 0.96,2.2 1.43,3.18c0.36,0.75 0.94,2.08 1.34,3.13c0.21,0.56 0.61,1.71 1,2.86c0.18,0.56 0.67,2.08 1.04,3.32c0.29,1 0.59,2.08 0.84,3.2c0.24,1.08 0.33,2.01 0.67,3.2c0.33,1.17 0.68,2.02 0.97,3.23c0.23,0.93 0.41,2.09 0.83,3.12c0.37,0.92 0.9,1.99 1.06,2.86c0.23,1.25 0.45,2.39 0.77,3.37c0.34,1.03 0.66,2.18 0.94,3.1c0.35,1.11 0.22,2.21 0.27,3.05c0.08,1.24 0.38,2.37 0.55,3.24c0.27,1.29 0.28,2.17 0.44,3.4c0.13,1.04 0.3,2.08 0.32,3.18c0.01,1.11 0,2.23 0,3.23l0,1.12l0,1.05" fill="#000000" id="svg_7" opacity="2"/>
 </g>
</svg>